<mxfile host="Electron" modified="2024-05-02T14:14:12.449Z" agent="Mozilla/5.0 (Windows NT 10.0; Win64; x64) AppleWebKit/537.36 (KHTML, like Gecko) draw.io/24.2.5 Chrome/120.0.6099.109 Electron/28.1.0 Safari/537.36" etag="u2QFU2aAMlIIFbpGE5Iy" version="24.2.5" type="device">
  <diagram name="Page-1" id="bGH7-VN_JAC0KqxiejL5">
    <mxGraphModel dx="2501" dy="2053" grid="1" gridSize="10" guides="1" tooltips="1" connect="1" arrows="1" fold="1" page="1" pageScale="1" pageWidth="827" pageHeight="1169" math="0" shadow="0">
      <root>
        <mxCell id="0" />
        <mxCell id="1" parent="0" />
        <mxCell id="iQBG601i4-Z-CA5yRwSc-1" value="&lt;p style=&quot;margin:0px;margin-top:4px;text-align:center;&quot;&gt;&lt;i&gt;&amp;lt;&amp;lt;Abstract&amp;gt;&amp;gt;&lt;/i&gt;&lt;br&gt;&lt;b&gt;AbstractFilter&lt;/b&gt;&lt;/p&gt;&lt;hr size=&quot;1&quot;&gt;&lt;p style=&quot;margin:0px;margin-left:4px;&quot;&gt;-&lt;/p&gt;&lt;hr size=&quot;1&quot;&gt;&lt;p style=&quot;margin:0px;margin-left:4px;&quot;&gt;+ &amp;lt;&amp;lt;Abstract&amp;gt;&amp;gt;filter(image: BufferedImage):BufferedImage&lt;/p&gt;" style="verticalAlign=top;align=left;overflow=fill;fontSize=12;fontFamily=Helvetica;html=1;whiteSpace=wrap;" parent="1" vertex="1">
          <mxGeometry x="510" y="40" width="330" height="90" as="geometry" />
        </mxCell>
        <mxCell id="iQBG601i4-Z-CA5yRwSc-2" value="Artifacter" style="swimlane;fontStyle=1;align=center;verticalAlign=top;childLayout=stackLayout;horizontal=1;startSize=26;horizontalStack=0;resizeParent=1;resizeParentMax=0;resizeLast=0;collapsible=1;marginBottom=0;whiteSpace=wrap;html=1;" parent="1" vertex="1">
          <mxGeometry x="110" y="180" width="210" height="94" as="geometry" />
        </mxCell>
        <mxCell id="iQBG601i4-Z-CA5yRwSc-3" value="+ tempFile:File&lt;br&gt;+ compressionQuality: Float" style="text;strokeColor=none;fillColor=none;align=left;verticalAlign=top;spacingLeft=4;spacingRight=4;overflow=hidden;rotatable=0;points=[[0,0.5],[1,0.5]];portConstraint=eastwest;whiteSpace=wrap;html=1;" parent="iQBG601i4-Z-CA5yRwSc-2" vertex="1">
          <mxGeometry y="26" width="210" height="34" as="geometry" />
        </mxCell>
        <mxCell id="iQBG601i4-Z-CA5yRwSc-4" value="" style="line;strokeWidth=1;fillColor=none;align=left;verticalAlign=middle;spacingTop=-1;spacingLeft=3;spacingRight=3;rotatable=0;labelPosition=right;points=[];portConstraint=eastwest;strokeColor=inherit;" parent="iQBG601i4-Z-CA5yRwSc-2" vertex="1">
          <mxGeometry y="60" width="210" height="8" as="geometry" />
        </mxCell>
        <mxCell id="iQBG601i4-Z-CA5yRwSc-5" value="+ filter (image:BufferedImage):image" style="text;strokeColor=none;fillColor=none;align=left;verticalAlign=top;spacingLeft=4;spacingRight=4;overflow=hidden;rotatable=0;points=[[0,0.5],[1,0.5]];portConstraint=eastwest;whiteSpace=wrap;html=1;" parent="iQBG601i4-Z-CA5yRwSc-2" vertex="1">
          <mxGeometry y="68" width="210" height="26" as="geometry" />
        </mxCell>
        <mxCell id="iQBG601i4-Z-CA5yRwSc-6" value="Dull" style="swimlane;fontStyle=1;align=center;verticalAlign=top;childLayout=stackLayout;horizontal=1;startSize=26;horizontalStack=0;resizeParent=1;resizeParentMax=0;resizeLast=0;collapsible=1;marginBottom=0;whiteSpace=wrap;html=1;" parent="1" vertex="1">
          <mxGeometry x="340" y="180" width="210" height="84" as="geometry" />
        </mxCell>
        <mxCell id="iQBG601i4-Z-CA5yRwSc-7" value="-" style="text;strokeColor=none;fillColor=none;align=left;verticalAlign=top;spacingLeft=4;spacingRight=4;overflow=hidden;rotatable=0;points=[[0,0.5],[1,0.5]];portConstraint=eastwest;whiteSpace=wrap;html=1;" parent="iQBG601i4-Z-CA5yRwSc-6" vertex="1">
          <mxGeometry y="26" width="210" height="24" as="geometry" />
        </mxCell>
        <mxCell id="iQBG601i4-Z-CA5yRwSc-8" value="" style="line;strokeWidth=1;fillColor=none;align=left;verticalAlign=middle;spacingTop=-1;spacingLeft=3;spacingRight=3;rotatable=0;labelPosition=right;points=[];portConstraint=eastwest;strokeColor=inherit;" parent="iQBG601i4-Z-CA5yRwSc-6" vertex="1">
          <mxGeometry y="50" width="210" height="8" as="geometry" />
        </mxCell>
        <mxCell id="iQBG601i4-Z-CA5yRwSc-9" value="+ filter (image:BufferedImage):image" style="text;strokeColor=none;fillColor=none;align=left;verticalAlign=top;spacingLeft=4;spacingRight=4;overflow=hidden;rotatable=0;points=[[0,0.5],[1,0.5]];portConstraint=eastwest;whiteSpace=wrap;html=1;" parent="iQBG601i4-Z-CA5yRwSc-6" vertex="1">
          <mxGeometry y="58" width="210" height="26" as="geometry" />
        </mxCell>
        <mxCell id="iQBG601i4-Z-CA5yRwSc-10" value="Rainbow" style="swimlane;fontStyle=1;align=center;verticalAlign=top;childLayout=stackLayout;horizontal=1;startSize=26;horizontalStack=0;resizeParent=1;resizeParentMax=0;resizeLast=0;collapsible=1;marginBottom=0;whiteSpace=wrap;html=1;" parent="1" vertex="1">
          <mxGeometry x="570" y="180" width="210" height="84" as="geometry" />
        </mxCell>
        <mxCell id="iQBG601i4-Z-CA5yRwSc-11" value="-" style="text;strokeColor=none;fillColor=none;align=left;verticalAlign=top;spacingLeft=4;spacingRight=4;overflow=hidden;rotatable=0;points=[[0,0.5],[1,0.5]];portConstraint=eastwest;whiteSpace=wrap;html=1;" parent="iQBG601i4-Z-CA5yRwSc-10" vertex="1">
          <mxGeometry y="26" width="210" height="24" as="geometry" />
        </mxCell>
        <mxCell id="iQBG601i4-Z-CA5yRwSc-12" value="" style="line;strokeWidth=1;fillColor=none;align=left;verticalAlign=middle;spacingTop=-1;spacingLeft=3;spacingRight=3;rotatable=0;labelPosition=right;points=[];portConstraint=eastwest;strokeColor=inherit;" parent="iQBG601i4-Z-CA5yRwSc-10" vertex="1">
          <mxGeometry y="50" width="210" height="8" as="geometry" />
        </mxCell>
        <mxCell id="iQBG601i4-Z-CA5yRwSc-13" value="+ filter (image:BufferedImage):image" style="text;strokeColor=none;fillColor=none;align=left;verticalAlign=top;spacingLeft=4;spacingRight=4;overflow=hidden;rotatable=0;points=[[0,0.5],[1,0.5]];portConstraint=eastwest;whiteSpace=wrap;html=1;" parent="iQBG601i4-Z-CA5yRwSc-10" vertex="1">
          <mxGeometry y="58" width="210" height="26" as="geometry" />
        </mxCell>
        <mxCell id="iQBG601i4-Z-CA5yRwSc-14" value="Repeater" style="swimlane;fontStyle=1;align=center;verticalAlign=top;childLayout=stackLayout;horizontal=1;startSize=26;horizontalStack=0;resizeParent=1;resizeParentMax=0;resizeLast=0;collapsible=1;marginBottom=0;whiteSpace=wrap;html=1;" parent="1" vertex="1">
          <mxGeometry x="800" y="180" width="210" height="94" as="geometry" />
        </mxCell>
        <mxCell id="iQBG601i4-Z-CA5yRwSc-15" value="+ X_REPEAT: int&lt;br&gt;+ Y_REPEAT: int" style="text;strokeColor=none;fillColor=none;align=left;verticalAlign=top;spacingLeft=4;spacingRight=4;overflow=hidden;rotatable=0;points=[[0,0.5],[1,0.5]];portConstraint=eastwest;whiteSpace=wrap;html=1;" parent="iQBG601i4-Z-CA5yRwSc-14" vertex="1">
          <mxGeometry y="26" width="210" height="34" as="geometry" />
        </mxCell>
        <mxCell id="iQBG601i4-Z-CA5yRwSc-16" value="" style="line;strokeWidth=1;fillColor=none;align=left;verticalAlign=middle;spacingTop=-1;spacingLeft=3;spacingRight=3;rotatable=0;labelPosition=right;points=[];portConstraint=eastwest;strokeColor=inherit;" parent="iQBG601i4-Z-CA5yRwSc-14" vertex="1">
          <mxGeometry y="60" width="210" height="8" as="geometry" />
        </mxCell>
        <mxCell id="iQBG601i4-Z-CA5yRwSc-17" value="+ filter (image:BufferedImage):image" style="text;strokeColor=none;fillColor=none;align=left;verticalAlign=top;spacingLeft=4;spacingRight=4;overflow=hidden;rotatable=0;points=[[0,0.5],[1,0.5]];portConstraint=eastwest;whiteSpace=wrap;html=1;" parent="iQBG601i4-Z-CA5yRwSc-14" vertex="1">
          <mxGeometry y="68" width="210" height="26" as="geometry" />
        </mxCell>
        <mxCell id="iQBG601i4-Z-CA5yRwSc-18" value="RGBShifter" style="swimlane;fontStyle=1;align=center;verticalAlign=top;childLayout=stackLayout;horizontal=1;startSize=26;horizontalStack=0;resizeParent=1;resizeParentMax=0;resizeLast=0;collapsible=1;marginBottom=0;whiteSpace=wrap;html=1;" parent="1" vertex="1">
          <mxGeometry x="1030" y="180" width="210" height="110" as="geometry" />
        </mxCell>
        <mxCell id="iQBG601i4-Z-CA5yRwSc-19" value="-" style="text;strokeColor=none;fillColor=none;align=left;verticalAlign=top;spacingLeft=4;spacingRight=4;overflow=hidden;rotatable=0;points=[[0,0.5],[1,0.5]];portConstraint=eastwest;whiteSpace=wrap;html=1;" parent="iQBG601i4-Z-CA5yRwSc-18" vertex="1">
          <mxGeometry y="26" width="210" height="24" as="geometry" />
        </mxCell>
        <mxCell id="iQBG601i4-Z-CA5yRwSc-20" value="" style="line;strokeWidth=1;fillColor=none;align=left;verticalAlign=middle;spacingTop=-1;spacingLeft=3;spacingRight=3;rotatable=0;labelPosition=right;points=[];portConstraint=eastwest;strokeColor=inherit;" parent="iQBG601i4-Z-CA5yRwSc-18" vertex="1">
          <mxGeometry y="50" width="210" height="8" as="geometry" />
        </mxCell>
        <mxCell id="iQBG601i4-Z-CA5yRwSc-21" value="+ filter (image:BufferedImage):image&lt;br&gt;+ shiftValue (original:Integer, shiftMagnitude:Integer)" style="text;strokeColor=none;fillColor=none;align=left;verticalAlign=top;spacingLeft=4;spacingRight=4;overflow=hidden;rotatable=0;points=[[0,0.5],[1,0.5]];portConstraint=eastwest;whiteSpace=wrap;html=1;" parent="iQBG601i4-Z-CA5yRwSc-18" vertex="1">
          <mxGeometry y="58" width="210" height="52" as="geometry" />
        </mxCell>
        <mxCell id="iQBG601i4-Z-CA5yRwSc-22" value="RGBShiftRepeater" style="swimlane;fontStyle=1;align=center;verticalAlign=top;childLayout=stackLayout;horizontal=1;startSize=26;horizontalStack=0;resizeParent=1;resizeParentMax=0;resizeLast=0;collapsible=1;marginBottom=0;whiteSpace=wrap;html=1;" parent="1" vertex="1">
          <mxGeometry x="1260" y="180" width="210" height="94" as="geometry" />
        </mxCell>
        <mxCell id="iQBG601i4-Z-CA5yRwSc-23" value="+ X_REPEAT: int&lt;br&gt;+ Y_REPEAT: int" style="text;strokeColor=none;fillColor=none;align=left;verticalAlign=top;spacingLeft=4;spacingRight=4;overflow=hidden;rotatable=0;points=[[0,0.5],[1,0.5]];portConstraint=eastwest;whiteSpace=wrap;html=1;" parent="iQBG601i4-Z-CA5yRwSc-22" vertex="1">
          <mxGeometry y="26" width="210" height="34" as="geometry" />
        </mxCell>
        <mxCell id="iQBG601i4-Z-CA5yRwSc-24" value="" style="line;strokeWidth=1;fillColor=none;align=left;verticalAlign=middle;spacingTop=-1;spacingLeft=3;spacingRight=3;rotatable=0;labelPosition=right;points=[];portConstraint=eastwest;strokeColor=inherit;" parent="iQBG601i4-Z-CA5yRwSc-22" vertex="1">
          <mxGeometry y="60" width="210" height="8" as="geometry" />
        </mxCell>
        <mxCell id="iQBG601i4-Z-CA5yRwSc-25" value="+ filter (image:BufferedImage):image" style="text;strokeColor=none;fillColor=none;align=left;verticalAlign=top;spacingLeft=4;spacingRight=4;overflow=hidden;rotatable=0;points=[[0,0.5],[1,0.5]];portConstraint=eastwest;whiteSpace=wrap;html=1;" parent="iQBG601i4-Z-CA5yRwSc-22" vertex="1">
          <mxGeometry y="68" width="210" height="26" as="geometry" />
        </mxCell>
        <mxCell id="iQBG601i4-Z-CA5yRwSc-26" value="PNGFilterLauncher" style="swimlane;fontStyle=1;align=center;verticalAlign=top;childLayout=stackLayout;horizontal=1;startSize=26;horizontalStack=0;resizeParent=1;resizeParentMax=0;resizeLast=0;collapsible=1;marginBottom=0;whiteSpace=wrap;html=1;" parent="1" vertex="1">
          <mxGeometry x="1100" y="-90" width="190" height="140" as="geometry" />
        </mxCell>
        <mxCell id="iQBG601i4-Z-CA5yRwSc-27" value="- inputFile:File&lt;br&gt;- outputFile: File" style="text;strokeColor=none;fillColor=none;align=left;verticalAlign=top;spacingLeft=4;spacingRight=4;overflow=hidden;rotatable=0;points=[[0,0.5],[1,0.5]];portConstraint=eastwest;whiteSpace=wrap;html=1;" parent="iQBG601i4-Z-CA5yRwSc-26" vertex="1">
          <mxGeometry y="26" width="190" height="34" as="geometry" />
        </mxCell>
        <mxCell id="iQBG601i4-Z-CA5yRwSc-28" value="" style="line;strokeWidth=1;fillColor=none;align=left;verticalAlign=middle;spacingTop=-1;spacingLeft=3;spacingRight=3;rotatable=0;labelPosition=right;points=[];portConstraint=eastwest;strokeColor=inherit;" parent="iQBG601i4-Z-CA5yRwSc-26" vertex="1">
          <mxGeometry y="60" width="190" height="8" as="geometry" />
        </mxCell>
        <mxCell id="iQBG601i4-Z-CA5yRwSc-29" value="+ processArgs (args:String[*])&lt;br&gt;+ initializeFilters()&lt;br&gt;+ getRainbowArtifactPipe()&lt;br&gt;+ getMonoArtifactPipe()" style="text;strokeColor=none;fillColor=none;align=left;verticalAlign=top;spacingLeft=4;spacingRight=4;overflow=hidden;rotatable=0;points=[[0,0.5],[1,0.5]];portConstraint=eastwest;whiteSpace=wrap;html=1;" parent="iQBG601i4-Z-CA5yRwSc-26" vertex="1">
          <mxGeometry y="68" width="190" height="72" as="geometry" />
        </mxCell>
        <mxCell id="iQBG601i4-Z-CA5yRwSc-30" value="1" style="endArrow=open;html=1;endSize=12;startArrow=diamondThin;startSize=14;startFill=1;edgeStyle=orthogonalEdgeStyle;align=left;verticalAlign=bottom;rounded=0;" parent="1" edge="1">
          <mxGeometry x="-0.8265" y="-1" relative="1" as="geometry">
            <mxPoint x="1100" y="-49" as="sourcePoint" />
            <mxPoint x="800" y="-49" as="targetPoint" />
            <mxPoint as="offset" />
            <Array as="points">
              <mxPoint x="1100" y="-49" />
            </Array>
          </mxGeometry>
        </mxCell>
        <mxCell id="iQBG601i4-Z-CA5yRwSc-31" value="filters" style="text;html=1;align=center;verticalAlign=middle;resizable=0;points=[];autosize=1;strokeColor=none;fillColor=none;" parent="1" vertex="1">
          <mxGeometry x="960" y="-70" width="50" height="30" as="geometry" />
        </mxCell>
        <mxCell id="iQBG601i4-Z-CA5yRwSc-32" value="" style="endArrow=classic;html=1;rounded=0;entryX=0.997;entryY=0.649;entryDx=0;entryDy=0;entryPerimeter=0;" parent="1" target="iQBG601i4-Z-CA5yRwSc-45" edge="1">
          <mxGeometry width="50" height="50" relative="1" as="geometry">
            <mxPoint x="1100" y="-25" as="sourcePoint" />
            <mxPoint x="870" y="-25" as="targetPoint" />
          </mxGeometry>
        </mxCell>
        <mxCell id="iQBG601i4-Z-CA5yRwSc-33" value="0..*&lt;br&gt;activeFilters" style="text;html=1;align=center;verticalAlign=middle;resizable=0;points=[];autosize=1;strokeColor=none;fillColor=none;" parent="1" vertex="1">
          <mxGeometry x="940" y="-30" width="90" height="40" as="geometry" />
        </mxCell>
        <mxCell id="iQBG601i4-Z-CA5yRwSc-34" value="" style="endArrow=block;endSize=16;endFill=0;html=1;rounded=0;exitX=0.5;exitY=0;exitDx=0;exitDy=0;entryX=0.5;entryY=1;entryDx=0;entryDy=0;edgeStyle=orthogonalEdgeStyle;" parent="1" source="iQBG601i4-Z-CA5yRwSc-2" target="iQBG601i4-Z-CA5yRwSc-1" edge="1">
          <mxGeometry width="160" relative="1" as="geometry">
            <mxPoint x="480" y="280" as="sourcePoint" />
            <mxPoint x="640" y="280" as="targetPoint" />
          </mxGeometry>
        </mxCell>
        <mxCell id="iQBG601i4-Z-CA5yRwSc-35" value="" style="endArrow=block;endSize=16;endFill=0;html=1;rounded=0;exitX=0.5;exitY=0;exitDx=0;exitDy=0;entryX=0.5;entryY=1;entryDx=0;entryDy=0;edgeStyle=orthogonalEdgeStyle;" parent="1" source="iQBG601i4-Z-CA5yRwSc-6" target="iQBG601i4-Z-CA5yRwSc-1" edge="1">
          <mxGeometry width="160" relative="1" as="geometry">
            <mxPoint x="95" y="190" as="sourcePoint" />
            <mxPoint x="685" y="140" as="targetPoint" />
          </mxGeometry>
        </mxCell>
        <mxCell id="iQBG601i4-Z-CA5yRwSc-36" value="" style="endArrow=block;endSize=16;endFill=0;html=1;rounded=0;exitX=0.5;exitY=0;exitDx=0;exitDy=0;entryX=0.5;entryY=1;entryDx=0;entryDy=0;edgeStyle=orthogonalEdgeStyle;" parent="1" source="iQBG601i4-Z-CA5yRwSc-10" target="iQBG601i4-Z-CA5yRwSc-1" edge="1">
          <mxGeometry width="160" relative="1" as="geometry">
            <mxPoint x="105" y="200" as="sourcePoint" />
            <mxPoint x="695" y="150" as="targetPoint" />
          </mxGeometry>
        </mxCell>
        <mxCell id="iQBG601i4-Z-CA5yRwSc-37" value="" style="endArrow=block;endSize=16;endFill=0;html=1;rounded=0;exitX=0.5;exitY=0;exitDx=0;exitDy=0;entryX=0.5;entryY=1;entryDx=0;entryDy=0;edgeStyle=orthogonalEdgeStyle;" parent="1" source="iQBG601i4-Z-CA5yRwSc-14" target="iQBG601i4-Z-CA5yRwSc-1" edge="1">
          <mxGeometry width="160" relative="1" as="geometry">
            <mxPoint x="555" y="190" as="sourcePoint" />
            <mxPoint x="685" y="140" as="targetPoint" />
          </mxGeometry>
        </mxCell>
        <mxCell id="iQBG601i4-Z-CA5yRwSc-38" value="" style="endArrow=block;endSize=16;endFill=0;html=1;rounded=0;exitX=0.5;exitY=0;exitDx=0;exitDy=0;entryX=0.5;entryY=1;entryDx=0;entryDy=0;edgeStyle=orthogonalEdgeStyle;" parent="1" source="iQBG601i4-Z-CA5yRwSc-18" target="iQBG601i4-Z-CA5yRwSc-1" edge="1">
          <mxGeometry width="160" relative="1" as="geometry">
            <mxPoint x="785" y="190" as="sourcePoint" />
            <mxPoint x="685" y="140" as="targetPoint" />
          </mxGeometry>
        </mxCell>
        <mxCell id="iQBG601i4-Z-CA5yRwSc-39" value="" style="endArrow=block;endSize=16;endFill=0;html=1;rounded=0;exitX=0.5;exitY=0;exitDx=0;exitDy=0;entryX=0.5;entryY=1;entryDx=0;entryDy=0;edgeStyle=orthogonalEdgeStyle;" parent="1" source="iQBG601i4-Z-CA5yRwSc-22" target="iQBG601i4-Z-CA5yRwSc-1" edge="1">
          <mxGeometry width="160" relative="1" as="geometry">
            <mxPoint x="1015" y="190" as="sourcePoint" />
            <mxPoint x="685" y="140" as="targetPoint" />
          </mxGeometry>
        </mxCell>
        <mxCell id="iQBG601i4-Z-CA5yRwSc-40" value="Monochrome" style="swimlane;fontStyle=1;align=center;verticalAlign=top;childLayout=stackLayout;horizontal=1;startSize=26;horizontalStack=0;resizeParent=1;resizeParentMax=0;resizeLast=0;collapsible=1;marginBottom=0;whiteSpace=wrap;html=1;" parent="1" vertex="1">
          <mxGeometry x="-130" y="180" width="210" height="110" as="geometry" />
        </mxCell>
        <mxCell id="iQBG601i4-Z-CA5yRwSc-41" value="-" style="text;strokeColor=none;fillColor=none;align=left;verticalAlign=top;spacingLeft=4;spacingRight=4;overflow=hidden;rotatable=0;points=[[0,0.5],[1,0.5]];portConstraint=eastwest;whiteSpace=wrap;html=1;" parent="iQBG601i4-Z-CA5yRwSc-40" vertex="1">
          <mxGeometry y="26" width="210" height="24" as="geometry" />
        </mxCell>
        <mxCell id="iQBG601i4-Z-CA5yRwSc-42" value="" style="line;strokeWidth=1;fillColor=none;align=left;verticalAlign=middle;spacingTop=-1;spacingLeft=3;spacingRight=3;rotatable=0;labelPosition=right;points=[];portConstraint=eastwest;strokeColor=inherit;" parent="iQBG601i4-Z-CA5yRwSc-40" vertex="1">
          <mxGeometry y="50" width="210" height="8" as="geometry" />
        </mxCell>
        <mxCell id="iQBG601i4-Z-CA5yRwSc-43" value="+ filter (image:BufferedImage):image&lt;br&gt;+ shiftValue(original:Integer, shiftMagnitude:Integer)" style="text;strokeColor=none;fillColor=none;align=left;verticalAlign=top;spacingLeft=4;spacingRight=4;overflow=hidden;rotatable=0;points=[[0,0.5],[1,0.5]];portConstraint=eastwest;whiteSpace=wrap;html=1;" parent="iQBG601i4-Z-CA5yRwSc-40" vertex="1">
          <mxGeometry y="58" width="210" height="52" as="geometry" />
        </mxCell>
        <mxCell id="iQBG601i4-Z-CA5yRwSc-44" value="" style="endArrow=block;endSize=16;endFill=0;html=1;rounded=0;exitX=0.5;exitY=0;exitDx=0;exitDy=0;entryX=0.5;entryY=1;entryDx=0;entryDy=0;edgeStyle=orthogonalEdgeStyle;" parent="1" source="iQBG601i4-Z-CA5yRwSc-40" target="iQBG601i4-Z-CA5yRwSc-1" edge="1">
          <mxGeometry width="160" relative="1" as="geometry">
            <mxPoint x="95" y="190" as="sourcePoint" />
            <mxPoint x="685" y="140" as="targetPoint" />
          </mxGeometry>
        </mxCell>
        <mxCell id="iQBG601i4-Z-CA5yRwSc-45" value="&lt;p style=&quot;margin:0px;margin-top:4px;text-align:center;&quot;&gt;&lt;i&gt;&amp;lt;&amp;lt;Interface&amp;gt;&amp;gt;&lt;/i&gt;&lt;br&gt;&lt;b&gt;ImageFilter&lt;/b&gt;&lt;/p&gt;&lt;hr size=&quot;1&quot;&gt;&lt;p style=&quot;margin:0px;margin-left:4px;&quot;&gt;-&lt;/p&gt;&lt;hr size=&quot;1&quot;&gt;&lt;p style=&quot;margin:0px;margin-left:4px;&quot;&gt;+ filter(image:BufferedImage):BufferedImage&lt;/p&gt;" style="verticalAlign=top;align=left;overflow=fill;fontSize=12;fontFamily=Helvetica;html=1;whiteSpace=wrap;" parent="1" vertex="1">
          <mxGeometry x="550" y="-90" width="250" height="100" as="geometry" />
        </mxCell>
        <mxCell id="iQBG601i4-Z-CA5yRwSc-46" value="" style="endArrow=block;dashed=1;endFill=0;endSize=12;html=1;rounded=0;entryX=0.5;entryY=1;entryDx=0;entryDy=0;exitX=0.5;exitY=0;exitDx=0;exitDy=0;" parent="1" source="iQBG601i4-Z-CA5yRwSc-1" target="iQBG601i4-Z-CA5yRwSc-45" edge="1">
          <mxGeometry width="160" relative="1" as="geometry">
            <mxPoint x="660" y="60" as="sourcePoint" />
            <mxPoint x="820" y="60" as="targetPoint" />
          </mxGeometry>
        </mxCell>
        <mxCell id="iQBG601i4-Z-CA5yRwSc-47" value="&lt;p style=&quot;margin:0px;margin-top:4px;text-align:center;&quot;&gt;&lt;i&gt;&amp;lt;&amp;lt;Interface&amp;gt;&amp;gt;&lt;/i&gt;&lt;br&gt;&lt;b&gt;ImageFilterPipeInterface&lt;/b&gt;&lt;/p&gt;&lt;hr size=&quot;1&quot;&gt;&lt;p style=&quot;margin:0px;margin-left:4px;&quot;&gt;-&lt;/p&gt;&lt;hr size=&quot;1&quot;&gt;&lt;p style=&quot;margin:0px;margin-left:4px;&quot;&gt;+ filter(image:BufferedImage):BufferedImage&lt;br&gt;+ addFilter(next:ImageFilter)&lt;/p&gt;&lt;p style=&quot;margin:0px;margin-left:4px;&quot;&gt;+ setNextPipe(newPipe:ImageFilterPipe)&lt;/p&gt;&lt;p style=&quot;margin:0px;margin-left:4px;&quot;&gt;+ addPipeFrom(newPipe:ImageFilterPipe, aPipe:ImageFilterPipe)&lt;/p&gt;" style="verticalAlign=top;align=left;overflow=fill;fontSize=12;fontFamily=Helvetica;html=1;whiteSpace=wrap;" parent="1" vertex="1">
          <mxGeometry x="-110" y="-110" width="260" height="150" as="geometry" />
        </mxCell>
        <mxCell id="iQBG601i4-Z-CA5yRwSc-48" value="ImageFilterPipe" style="swimlane;fontStyle=1;align=center;verticalAlign=top;childLayout=stackLayout;horizontal=1;startSize=26;horizontalStack=0;resizeParent=1;resizeParentMax=0;resizeLast=0;collapsible=1;marginBottom=0;whiteSpace=wrap;html=1;" parent="1" vertex="1">
          <mxGeometry x="270" y="30" width="160" height="86" as="geometry" />
        </mxCell>
        <mxCell id="iQBG601i4-Z-CA5yRwSc-49" value="-" style="text;strokeColor=none;fillColor=none;align=left;verticalAlign=top;spacingLeft=4;spacingRight=4;overflow=hidden;rotatable=0;points=[[0,0.5],[1,0.5]];portConstraint=eastwest;whiteSpace=wrap;html=1;" parent="iQBG601i4-Z-CA5yRwSc-48" vertex="1">
          <mxGeometry y="26" width="160" height="26" as="geometry" />
        </mxCell>
        <mxCell id="iQBG601i4-Z-CA5yRwSc-50" value="" style="line;strokeWidth=1;fillColor=none;align=left;verticalAlign=middle;spacingTop=-1;spacingLeft=3;spacingRight=3;rotatable=0;labelPosition=right;points=[];portConstraint=eastwest;strokeColor=inherit;" parent="iQBG601i4-Z-CA5yRwSc-48" vertex="1">
          <mxGeometry y="52" width="160" height="8" as="geometry" />
        </mxCell>
        <mxCell id="iQBG601i4-Z-CA5yRwSc-51" value="-" style="text;strokeColor=none;fillColor=none;align=left;verticalAlign=top;spacingLeft=4;spacingRight=4;overflow=hidden;rotatable=0;points=[[0,0.5],[1,0.5]];portConstraint=eastwest;whiteSpace=wrap;html=1;" parent="iQBG601i4-Z-CA5yRwSc-48" vertex="1">
          <mxGeometry y="60" width="160" height="26" as="geometry" />
        </mxCell>
        <mxCell id="iQBG601i4-Z-CA5yRwSc-52" value="" style="endArrow=classic;html=1;rounded=0;exitX=0;exitY=0.5;exitDx=0;exitDy=0;entryX=1;entryY=0.25;entryDx=0;entryDy=0;edgeStyle=orthogonalEdgeStyle;" parent="1" source="iQBG601i4-Z-CA5yRwSc-49" target="iQBG601i4-Z-CA5yRwSc-47" edge="1">
          <mxGeometry width="50" height="50" relative="1" as="geometry">
            <mxPoint x="230" y="-20" as="sourcePoint" />
            <mxPoint x="90" y="-130" as="targetPoint" />
            <Array as="points">
              <mxPoint x="230" y="69" />
              <mxPoint x="230" y="-72" />
            </Array>
          </mxGeometry>
        </mxCell>
        <mxCell id="iQBG601i4-Z-CA5yRwSc-53" value="#nextPipe" style="text;html=1;align=center;verticalAlign=middle;resizable=0;points=[];autosize=1;strokeColor=none;fillColor=none;" parent="1" vertex="1">
          <mxGeometry x="150" y="-80" width="80" height="30" as="geometry" />
        </mxCell>
        <mxCell id="iQBG601i4-Z-CA5yRwSc-54" value="" style="endArrow=block;dashed=1;endFill=0;endSize=12;html=1;rounded=0;entryX=1;entryY=0.75;entryDx=0;entryDy=0;exitX=0;exitY=0.5;exitDx=0;exitDy=0;edgeStyle=orthogonalEdgeStyle;" parent="1" source="iQBG601i4-Z-CA5yRwSc-51" target="iQBG601i4-Z-CA5yRwSc-47" edge="1">
          <mxGeometry width="160" relative="1" as="geometry">
            <mxPoint x="230" y="-60" as="sourcePoint" />
            <mxPoint x="390" y="-60" as="targetPoint" />
            <Array as="points">
              <mxPoint x="270" y="100" />
              <mxPoint x="190" y="100" />
              <mxPoint x="190" y="2" />
            </Array>
          </mxGeometry>
        </mxCell>
        <mxCell id="iQBG601i4-Z-CA5yRwSc-55" value="" style="endArrow=block;dashed=1;endFill=0;endSize=12;html=1;rounded=0;entryX=0;entryY=0.5;entryDx=0;entryDy=0;exitX=1;exitY=0.5;exitDx=0;exitDy=0;edgeStyle=orthogonalEdgeStyle;" parent="1" source="iQBG601i4-Z-CA5yRwSc-49" target="iQBG601i4-Z-CA5yRwSc-45" edge="1">
          <mxGeometry width="160" relative="1" as="geometry">
            <mxPoint x="400" y="-20" as="sourcePoint" />
            <mxPoint x="560" y="-20" as="targetPoint" />
          </mxGeometry>
        </mxCell>
        <mxCell id="iQBG601i4-Z-CA5yRwSc-56" value="" style="endArrow=classic;html=1;rounded=0;exitX=1;exitY=0.25;exitDx=0;exitDy=0;entryX=0;entryY=0.25;entryDx=0;entryDy=0;edgeStyle=orthogonalEdgeStyle;" parent="1" source="iQBG601i4-Z-CA5yRwSc-48" target="iQBG601i4-Z-CA5yRwSc-45" edge="1">
          <mxGeometry width="50" height="50" relative="1" as="geometry">
            <mxPoint x="370" y="20" as="sourcePoint" />
            <mxPoint x="420" y="-30" as="targetPoint" />
            <Array as="points">
              <mxPoint x="470" y="52" />
              <mxPoint x="470" y="-65" />
            </Array>
          </mxGeometry>
        </mxCell>
        <mxCell id="iQBG601i4-Z-CA5yRwSc-57" value="filter" style="text;html=1;align=center;verticalAlign=middle;resizable=0;points=[];autosize=1;strokeColor=none;fillColor=none;" parent="1" vertex="1">
          <mxGeometry x="480" y="-90" width="50" height="30" as="geometry" />
        </mxCell>
        <mxCell id="iQBG601i4-Z-CA5yRwSc-58" value="EndPipe" style="swimlane;fontStyle=1;align=center;verticalAlign=top;childLayout=stackLayout;horizontal=1;startSize=26;horizontalStack=0;resizeParent=1;resizeParentMax=0;resizeLast=0;collapsible=1;marginBottom=0;whiteSpace=wrap;html=1;" parent="1" vertex="1">
          <mxGeometry x="270" y="-80" width="160" height="86" as="geometry" />
        </mxCell>
        <mxCell id="iQBG601i4-Z-CA5yRwSc-59" value="-" style="text;strokeColor=none;fillColor=none;align=left;verticalAlign=top;spacingLeft=4;spacingRight=4;overflow=hidden;rotatable=0;points=[[0,0.5],[1,0.5]];portConstraint=eastwest;whiteSpace=wrap;html=1;" parent="iQBG601i4-Z-CA5yRwSc-58" vertex="1">
          <mxGeometry y="26" width="160" height="26" as="geometry" />
        </mxCell>
        <mxCell id="iQBG601i4-Z-CA5yRwSc-60" value="" style="line;strokeWidth=1;fillColor=none;align=left;verticalAlign=middle;spacingTop=-1;spacingLeft=3;spacingRight=3;rotatable=0;labelPosition=right;points=[];portConstraint=eastwest;strokeColor=inherit;" parent="iQBG601i4-Z-CA5yRwSc-58" vertex="1">
          <mxGeometry y="52" width="160" height="8" as="geometry" />
        </mxCell>
        <mxCell id="iQBG601i4-Z-CA5yRwSc-61" value="-" style="text;strokeColor=none;fillColor=none;align=left;verticalAlign=top;spacingLeft=4;spacingRight=4;overflow=hidden;rotatable=0;points=[[0,0.5],[1,0.5]];portConstraint=eastwest;whiteSpace=wrap;html=1;" parent="iQBG601i4-Z-CA5yRwSc-58" vertex="1">
          <mxGeometry y="60" width="160" height="26" as="geometry" />
        </mxCell>
        <mxCell id="iQBG601i4-Z-CA5yRwSc-62" value="" style="endArrow=block;dashed=1;endFill=0;endSize=12;html=1;rounded=0;exitX=0.25;exitY=0;exitDx=0;exitDy=0;entryX=0.75;entryY=0;entryDx=0;entryDy=0;edgeStyle=orthogonalEdgeStyle;" parent="1" source="iQBG601i4-Z-CA5yRwSc-58" target="iQBG601i4-Z-CA5yRwSc-47" edge="1">
          <mxGeometry width="160" relative="1" as="geometry">
            <mxPoint x="260" y="40" as="sourcePoint" />
            <mxPoint x="420" y="40" as="targetPoint" />
            <Array as="points">
              <mxPoint x="310" y="-140" />
              <mxPoint x="85" y="-140" />
            </Array>
          </mxGeometry>
        </mxCell>
        <mxCell id="iQBG601i4-Z-CA5yRwSc-63" value="" style="endArrow=block;dashed=1;endFill=0;endSize=12;html=1;rounded=0;exitX=0.75;exitY=0;exitDx=0;exitDy=0;edgeStyle=orthogonalEdgeStyle;entryX=0.5;entryY=0;entryDx=0;entryDy=0;" parent="1" source="iQBG601i4-Z-CA5yRwSc-58" target="iQBG601i4-Z-CA5yRwSc-45" edge="1">
          <mxGeometry width="160" relative="1" as="geometry">
            <mxPoint x="320" y="-70" as="sourcePoint" />
            <mxPoint x="610" y="-140" as="targetPoint" />
            <Array as="points">
              <mxPoint x="390" y="-140" />
              <mxPoint x="675" y="-140" />
            </Array>
          </mxGeometry>
        </mxCell>
        <mxCell id="dLqOzAm93TPSg4PN2U5S-1" value="*" style="text;html=1;align=center;verticalAlign=middle;resizable=0;points=[];autosize=1;strokeColor=none;fillColor=none;" vertex="1" parent="1">
          <mxGeometry x="807" y="-78" width="30" height="30" as="geometry" />
        </mxCell>
      </root>
    </mxGraphModel>
  </diagram>
</mxfile>
